<svg xmlns="http://www.w3.org/2000/svg" width="16" height="16" viewBox="0 0 16 16">
    <defs>
        <clipPath id="clip-Web_1920_1">
            <rect width="16" height="16"/>
        </clipPath>
    </defs>
    <g id="Web_1920_1" data-name="Web 1920 – 1" clip-path="url(#clip-Web_1920_1)">
        <g id="logo" transform="translate(2.5)">
            <path id="Path_434" data-name="Path 434"
                  d="M52.893-166.858v.269a5.633,5.633,0,0,1-1.651,3.7h0l-3.982-3.967-4.373-4.368-.049-.048-.021-.023a.753.753,0,0,1,.1-1.061.755.755,0,0,1,.481-.172h3.715a5.827,5.827,0,0,1,4.122,1.7h0l.016.016c.058.058.115.119.171.181s.119.136.177.206a5.48,5.48,0,0,1,1.293,3.3Z"
                  transform="translate(-41.893 172.53)" fill="#ff6565"/>
            <path id="Path_435" data-name="Path 435"
                  d="M46.182-124.679a5.827,5.827,0,0,1-4.122,1.7H36.838a.757.757,0,0,1,.221-.533L42.2-128.65l3.972,3.967h0Z"
                  transform="translate(-36.838 134.323)" fill="#fbbb21"/>
            <path id="Path_436" data-name="Path 436"
                  d="M47.376-82.023H41.51a.737.737,0,0,1-.615-.216l-3.836-3.843a.757.757,0,0,1-.221-.533H42.06a5.862,5.862,0,0,0,1.774-.275l.234.275v.009l1.958,2.291,1.566,1.837a.276.276,0,0,1-.033.39A.277.277,0,0,1,47.376-82.023Z"
                  transform="translate(-36.838 97.961)" fill="#5a7bef"/>
        </g>
    </g>
</svg>