<svg id="logo" xmlns="http://www.w3.org/2000/svg" width="86" height="124.782" viewBox="0 0 86 124.782">
  <path id="Path_434" data-name="Path 434" d="M122.77-128.134v2.1a44.111,44.111,0,0,1-12.91,28.947h0L78.728-128.134,44.54-162.321l-.384-.374-.162-.182a5.9,5.9,0,0,1,.8-8.3,5.9,5.9,0,0,1,3.757-1.349H77.595a45.532,45.532,0,0,1,32.225,13.315h0l.121.121c.455.455.9.931,1.336,1.416s.931,1.062,1.386,1.609a42.914,42.914,0,0,1,10.108,25.831Z" transform="translate(-36.77 172.53)" fill="#ff6565"/>
  <path id="Path_435" data-name="Path 435" d="M109.888-97.568A45.53,45.53,0,0,1,77.663-84.243H36.838a5.926,5.926,0,0,1,1.73-4.168L78.8-128.65,109.847-97.6h0Z" transform="translate(-36.838 173.046)" fill="#f5bb49"/>
  <path id="Path_436" data-name="Path 436" d="M119.226-48.8H73.363a5.757,5.757,0,0,1-4.806-1.69L38.568-80.566a5.926,5.926,0,0,1-1.73-4.168H77.663A45.774,45.774,0,0,0,91.534-86.89l1.831,2.155v.071l15.308,17.929,12.242,14.377a2.165,2.165,0,0,1-.259,3.051A2.167,2.167,0,0,1,119.226-48.8Z" transform="translate(-36.838 173.538)" fill="#3860f6"/>
</svg>
