<svg id="_512" data-name="512" xmlns="http://www.w3.org/2000/svg" width="512" height="512" viewBox="0 0 512 512">
  <rect id="Rectangle_1473" data-name="Rectangle 1473" width="512" height="512" fill="#333231"/>
  <g id="logo" transform="translate(133 77)">
    <path id="Path_434" data-name="Path 434" d="M271.781-45.513v6.021a126.225,126.225,0,0,1-36.92,82.816h0L145.832-45.513l-97.767-97.81-1.1-1.071-.463-.521a16.879,16.879,0,0,1,2.277-23.756,16.862,16.862,0,0,1,10.743-3.858h83.069a130.182,130.182,0,0,1,92.154,38.093h0l.347.347c1.3,1.3,2.575,2.663,3.819,4.052s2.662,3.039,3.964,4.6a122.808,122.808,0,0,1,28.9,73.9Z" transform="translate(-25.844 172.53)" fill="#ff6565"/>
    <path id="Path_435" data-name="Path 435" d="M245.74-39.726A130.175,130.175,0,0,1,153.586-1.6H36.838A16.957,16.957,0,0,1,41.786-13.53L156.827-128.65l88.8,88.837h0Z" transform="translate(-36.838 255.667)" fill="#fbbb21"/>
    <path id="Path_436" data-name="Path 436" d="M272.446,22.094H141.289a16.46,16.46,0,0,1-13.744-4.834L41.786-68.8a16.957,16.957,0,0,1-4.948-11.926H153.586a130.85,130.85,0,0,0,39.668-6.166l5.237,6.166v.2l43.777,51.293L277.278,11.9a6.2,6.2,0,0,1-4.832,10.189Z" transform="translate(-36.838 334.788)" fill="#5a7bef"/>
  </g>
</svg>
